<mxfile host="app.diagrams.net" agent="Mozilla/5.0 (Macintosh; Intel Mac OS X 10_15_7) AppleWebKit/537.36 (KHTML, like Gecko) Chrome/126.0.0.0 YaBrowser/24.7.0.0 Safari/537.36" version="24.7.17">
  <diagram name="Страница — 1" id="knjwvPqTOa-UB5_90KHn">
    <mxGraphModel dx="2616" dy="1218" grid="1" gridSize="10" guides="1" tooltips="1" connect="1" arrows="1" fold="1" page="1" pageScale="1" pageWidth="827" pageHeight="1169" math="0" shadow="0">
      <root>
        <mxCell id="0" />
        <mxCell id="1" parent="0" />
        <mxCell id="gOE7nMKPhkvVEyiqWbvj-1" value="" style="rounded=1;whiteSpace=wrap;html=1;" vertex="1" parent="1">
          <mxGeometry x="-40" y="80" width="240" height="400" as="geometry" />
        </mxCell>
        <mxCell id="gOE7nMKPhkvVEyiqWbvj-2" value="" style="rounded=1;whiteSpace=wrap;html=1;" vertex="1" parent="1">
          <mxGeometry x="280" y="80" width="240" height="400" as="geometry" />
        </mxCell>
        <mxCell id="gOE7nMKPhkvVEyiqWbvj-3" value="" style="rounded=1;whiteSpace=wrap;html=1;" vertex="1" parent="1">
          <mxGeometry x="600" y="80" width="240" height="400" as="geometry" />
        </mxCell>
        <mxCell id="gOE7nMKPhkvVEyiqWbvj-4" value="" style="rounded=1;whiteSpace=wrap;html=1;" vertex="1" parent="1">
          <mxGeometry x="920" y="80" width="240" height="400" as="geometry" />
        </mxCell>
        <mxCell id="gOE7nMKPhkvVEyiqWbvj-5" value="" style="rounded=1;whiteSpace=wrap;html=1;" vertex="1" parent="1">
          <mxGeometry x="1240.5" y="80" width="240" height="400" as="geometry" />
        </mxCell>
        <mxCell id="gOE7nMKPhkvVEyiqWbvj-6" value="" style="rounded=1;whiteSpace=wrap;html=1;" vertex="1" parent="1">
          <mxGeometry x="-20" y="140" width="200" height="180" as="geometry" />
        </mxCell>
        <mxCell id="gOE7nMKPhkvVEyiqWbvj-7" value="" style="rounded=1;whiteSpace=wrap;html=1;" vertex="1" parent="1">
          <mxGeometry x="1260.5" y="140" width="200" height="180" as="geometry" />
        </mxCell>
        <mxCell id="gOE7nMKPhkvVEyiqWbvj-8" value="" style="rounded=1;whiteSpace=wrap;html=1;" vertex="1" parent="1">
          <mxGeometry x="-20" y="380" width="200" height="50" as="geometry" />
        </mxCell>
        <mxCell id="gOE7nMKPhkvVEyiqWbvj-9" value="" style="rounded=1;whiteSpace=wrap;html=1;" vertex="1" parent="1">
          <mxGeometry x="1260.5" y="380" width="200" height="50" as="geometry" />
        </mxCell>
        <mxCell id="gOE7nMKPhkvVEyiqWbvj-10" value="" style="ellipse;whiteSpace=wrap;html=1;aspect=fixed;" vertex="1" parent="1">
          <mxGeometry x="150" y="440" width="30" height="30" as="geometry" />
        </mxCell>
        <mxCell id="gOE7nMKPhkvVEyiqWbvj-68" value="" style="edgeStyle=orthogonalEdgeStyle;rounded=0;orthogonalLoop=1;jettySize=auto;html=1;" edge="1" parent="1" source="gOE7nMKPhkvVEyiqWbvj-11" target="gOE7nMKPhkvVEyiqWbvj-67">
          <mxGeometry relative="1" as="geometry" />
        </mxCell>
        <mxCell id="gOE7nMKPhkvVEyiqWbvj-11" value="" style="ellipse;whiteSpace=wrap;html=1;aspect=fixed;" vertex="1" parent="1">
          <mxGeometry x="-20" y="100" width="30" height="30" as="geometry" />
        </mxCell>
        <mxCell id="gOE7nMKPhkvVEyiqWbvj-12" value="" style="ellipse;whiteSpace=wrap;html=1;aspect=fixed;" vertex="1" parent="1">
          <mxGeometry x="1260.5" y="90" width="30" height="30" as="geometry" />
        </mxCell>
        <mxCell id="gOE7nMKPhkvVEyiqWbvj-13" value="" style="ellipse;whiteSpace=wrap;html=1;aspect=fixed;" vertex="1" parent="1">
          <mxGeometry x="1425" y="445" width="30" height="30" as="geometry" />
        </mxCell>
        <mxCell id="gOE7nMKPhkvVEyiqWbvj-18" value="" style="shape=cross;whiteSpace=wrap;html=1;size=0;" vertex="1" parent="1">
          <mxGeometry x="155" y="445" width="20" height="20" as="geometry" />
        </mxCell>
        <mxCell id="gOE7nMKPhkvVEyiqWbvj-21" value="" style="shape=cross;whiteSpace=wrap;html=1;size=0;" vertex="1" parent="1">
          <mxGeometry x="1430" y="450" width="20" height="20" as="geometry" />
        </mxCell>
        <mxCell id="gOE7nMKPhkvVEyiqWbvj-25" value="&lt;font style=&quot;font-size: 17px;&quot; face=&quot;Tahoma&quot;&gt;Сегодня&lt;/font&gt;" style="text;html=1;align=center;verticalAlign=middle;whiteSpace=wrap;rounded=0;" vertex="1" parent="1">
          <mxGeometry x="95" y="100" width="60" height="30" as="geometry" />
        </mxCell>
        <mxCell id="gOE7nMKPhkvVEyiqWbvj-26" value="&lt;font style=&quot;font-size: 17px;&quot; face=&quot;Tahoma&quot;&gt;Вчера&lt;/font&gt;" style="text;html=1;align=center;verticalAlign=middle;whiteSpace=wrap;rounded=0;" vertex="1" parent="1">
          <mxGeometry x="95" y="340" width="60" height="30" as="geometry" />
        </mxCell>
        <mxCell id="gOE7nMKPhkvVEyiqWbvj-27" value="&lt;font style=&quot;font-size: 17px;&quot; face=&quot;Tahoma&quot;&gt;Сегодня&lt;/font&gt;" style="text;html=1;align=center;verticalAlign=middle;whiteSpace=wrap;rounded=0;" vertex="1" parent="1">
          <mxGeometry x="1390" y="100" width="60" height="30" as="geometry" />
        </mxCell>
        <mxCell id="gOE7nMKPhkvVEyiqWbvj-28" value="&lt;font style=&quot;font-size: 17px;&quot; face=&quot;Tahoma&quot;&gt;Вчера&lt;/font&gt;" style="text;html=1;align=center;verticalAlign=middle;whiteSpace=wrap;rounded=0;" vertex="1" parent="1">
          <mxGeometry x="1390" y="340" width="60" height="30" as="geometry" />
        </mxCell>
        <mxCell id="gOE7nMKPhkvVEyiqWbvj-29" value="" style="endArrow=none;html=1;rounded=0;entryX=0.95;entryY=0.389;entryDx=0;entryDy=0;entryPerimeter=0;" edge="1" parent="1">
          <mxGeometry width="50" height="50" relative="1" as="geometry">
            <mxPoint x="-15" y="190" as="sourcePoint" />
            <mxPoint x="174.99999999999977" y="190.0200000000001" as="targetPoint" />
          </mxGeometry>
        </mxCell>
        <mxCell id="gOE7nMKPhkvVEyiqWbvj-30" value="" style="endArrow=none;html=1;rounded=0;entryX=0.95;entryY=0.389;entryDx=0;entryDy=0;entryPerimeter=0;" edge="1" parent="1">
          <mxGeometry width="50" height="50" relative="1" as="geometry">
            <mxPoint x="-15" y="229.58" as="sourcePoint" />
            <mxPoint x="174.99999999999977" y="229.6000000000001" as="targetPoint" />
          </mxGeometry>
        </mxCell>
        <mxCell id="gOE7nMKPhkvVEyiqWbvj-31" value="" style="endArrow=none;html=1;rounded=0;entryX=0.95;entryY=0.389;entryDx=0;entryDy=0;entryPerimeter=0;" edge="1" parent="1">
          <mxGeometry width="50" height="50" relative="1" as="geometry">
            <mxPoint x="-15" y="270" as="sourcePoint" />
            <mxPoint x="174.99999999999977" y="270.0200000000001" as="targetPoint" />
          </mxGeometry>
        </mxCell>
        <mxCell id="gOE7nMKPhkvVEyiqWbvj-32" value="" style="endArrow=none;html=1;rounded=0;entryX=0.95;entryY=0.389;entryDx=0;entryDy=0;entryPerimeter=0;" edge="1" parent="1">
          <mxGeometry width="50" height="50" relative="1" as="geometry">
            <mxPoint x="1265" y="190" as="sourcePoint" />
            <mxPoint x="1454.9999999999998" y="190.0200000000001" as="targetPoint" />
          </mxGeometry>
        </mxCell>
        <mxCell id="gOE7nMKPhkvVEyiqWbvj-33" value="" style="endArrow=none;html=1;rounded=0;entryX=0.95;entryY=0.389;entryDx=0;entryDy=0;entryPerimeter=0;" edge="1" parent="1">
          <mxGeometry width="50" height="50" relative="1" as="geometry">
            <mxPoint x="1265" y="240" as="sourcePoint" />
            <mxPoint x="1454.9999999999998" y="240.0200000000001" as="targetPoint" />
          </mxGeometry>
        </mxCell>
        <mxCell id="gOE7nMKPhkvVEyiqWbvj-34" value="" style="endArrow=none;html=1;rounded=0;entryX=0.95;entryY=0.389;entryDx=0;entryDy=0;entryPerimeter=0;" edge="1" parent="1">
          <mxGeometry width="50" height="50" relative="1" as="geometry">
            <mxPoint x="1265.5" y="279.17" as="sourcePoint" />
            <mxPoint x="1455.4999999999998" y="279.1900000000001" as="targetPoint" />
          </mxGeometry>
        </mxCell>
        <mxCell id="gOE7nMKPhkvVEyiqWbvj-38" value="&lt;h1 style=&quot;margin-top: 0px;&quot;&gt;&lt;span style=&quot;background-color: initial; font-size: 12px; font-weight: normal;&quot;&gt;00:00 Текст заметки&lt;/span&gt;&lt;br&gt;&lt;/h1&gt;" style="text;html=1;whiteSpace=wrap;overflow=hidden;rounded=0;" vertex="1" parent="1">
          <mxGeometry x="20" y="140" width="180" height="40" as="geometry" />
        </mxCell>
        <mxCell id="gOE7nMKPhkvVEyiqWbvj-39" value="&lt;h1 style=&quot;margin-top: 0px;&quot;&gt;&lt;span style=&quot;background-color: initial; font-size: 12px; font-weight: normal;&quot;&gt;00:00 Текст заметки&lt;/span&gt;&lt;br&gt;&lt;/h1&gt;" style="text;html=1;whiteSpace=wrap;overflow=hidden;rounded=0;" vertex="1" parent="1">
          <mxGeometry x="20" y="180" width="180" height="40" as="geometry" />
        </mxCell>
        <mxCell id="gOE7nMKPhkvVEyiqWbvj-41" value="&lt;h1 style=&quot;margin-top: 0px;&quot;&gt;&lt;span style=&quot;background-color: initial; font-size: 12px; font-weight: normal;&quot;&gt;00:00 Текст заметки&lt;/span&gt;&lt;br&gt;&lt;/h1&gt;" style="text;html=1;whiteSpace=wrap;overflow=hidden;rounded=0;" vertex="1" parent="1">
          <mxGeometry x="20" y="220" width="180" height="40" as="geometry" />
        </mxCell>
        <mxCell id="gOE7nMKPhkvVEyiqWbvj-42" value="&lt;h1 style=&quot;margin-top: 0px;&quot;&gt;&lt;span style=&quot;background-color: initial; font-size: 12px; font-weight: normal;&quot;&gt;00:00 Текст заметки&lt;/span&gt;&lt;br&gt;&lt;/h1&gt;" style="text;html=1;whiteSpace=wrap;overflow=hidden;rounded=0;" vertex="1" parent="1">
          <mxGeometry x="20" y="270" width="180" height="40" as="geometry" />
        </mxCell>
        <mxCell id="gOE7nMKPhkvVEyiqWbvj-43" value="&lt;h1 style=&quot;margin-top: 0px;&quot;&gt;&lt;span style=&quot;background-color: initial; font-size: 12px; font-weight: normal;&quot;&gt;00:00 Текст заметки&lt;/span&gt;&lt;br&gt;&lt;/h1&gt;" style="text;html=1;whiteSpace=wrap;overflow=hidden;rounded=0;" vertex="1" parent="1">
          <mxGeometry x="1300.5" y="140" width="180" height="40" as="geometry" />
        </mxCell>
        <mxCell id="gOE7nMKPhkvVEyiqWbvj-44" value="&lt;h1 style=&quot;margin-top: 0px;&quot;&gt;&lt;span style=&quot;background-color: initial; font-size: 12px; font-weight: normal;&quot;&gt;00:00 Текст заметки&lt;/span&gt;&lt;br&gt;&lt;/h1&gt;" style="text;html=1;whiteSpace=wrap;overflow=hidden;rounded=0;" vertex="1" parent="1">
          <mxGeometry x="1300.5" y="190" width="180" height="40" as="geometry" />
        </mxCell>
        <mxCell id="gOE7nMKPhkvVEyiqWbvj-45" value="&lt;h1 style=&quot;margin-top: 0px;&quot;&gt;&lt;span style=&quot;background-color: initial; font-size: 12px; font-weight: normal;&quot;&gt;00:00 Текст заметки&lt;/span&gt;&lt;br&gt;&lt;/h1&gt;" style="text;html=1;whiteSpace=wrap;overflow=hidden;rounded=0;" vertex="1" parent="1">
          <mxGeometry x="1300.5" y="380" width="180" height="40" as="geometry" />
        </mxCell>
        <mxCell id="gOE7nMKPhkvVEyiqWbvj-47" value="&lt;h1 style=&quot;margin-top: 0px;&quot;&gt;&lt;span style=&quot;background-color: initial; font-size: 12px; font-weight: normal;&quot;&gt;00:00 Текст заметки&lt;/span&gt;&lt;br&gt;&lt;/h1&gt;" style="text;html=1;whiteSpace=wrap;overflow=hidden;rounded=0;" vertex="1" parent="1">
          <mxGeometry x="1300.5" y="230" width="180" height="40" as="geometry" />
        </mxCell>
        <mxCell id="gOE7nMKPhkvVEyiqWbvj-48" value="&lt;h1 style=&quot;margin-top: 0px;&quot;&gt;&lt;span style=&quot;background-color: initial; font-size: 12px; font-weight: normal;&quot;&gt;00:00 Текст заметки&lt;/span&gt;&lt;br&gt;&lt;/h1&gt;" style="text;html=1;whiteSpace=wrap;overflow=hidden;rounded=0;" vertex="1" parent="1">
          <mxGeometry x="1300.5" y="270" width="180" height="40" as="geometry" />
        </mxCell>
        <mxCell id="gOE7nMKPhkvVEyiqWbvj-50" value="&lt;h1 style=&quot;margin-top: 0px;&quot;&gt;&lt;span style=&quot;background-color: initial; font-size: 12px; font-weight: normal;&quot;&gt;00:00 Текст заметки&lt;/span&gt;&lt;br&gt;&lt;/h1&gt;" style="text;html=1;whiteSpace=wrap;overflow=hidden;rounded=0;" vertex="1" parent="1">
          <mxGeometry x="10" y="380" width="180" height="40" as="geometry" />
        </mxCell>
        <mxCell id="gOE7nMKPhkvVEyiqWbvj-53" value="" style="shape=flexArrow;endArrow=classic;html=1;rounded=0;width=13.333333333333332;endSize=6.855555555555555;" edge="1" parent="1">
          <mxGeometry width="50" height="50" relative="1" as="geometry">
            <mxPoint x="340" y="114.44000000000005" as="sourcePoint" />
            <mxPoint x="290" y="114.44000000000005" as="targetPoint" />
          </mxGeometry>
        </mxCell>
        <mxCell id="gOE7nMKPhkvVEyiqWbvj-54" value="" style="shape=flexArrow;endArrow=classic;html=1;rounded=0;width=13.333333333333332;endSize=6.855555555555555;" edge="1" parent="1">
          <mxGeometry width="50" height="50" relative="1" as="geometry">
            <mxPoint x="670" y="120.00000000000006" as="sourcePoint" />
            <mxPoint x="620" y="120.00000000000006" as="targetPoint" />
          </mxGeometry>
        </mxCell>
        <mxCell id="gOE7nMKPhkvVEyiqWbvj-58" value="" style="shape=flexArrow;endArrow=classic;html=1;rounded=0;width=13.333333333333332;endSize=6.855555555555555;" edge="1" parent="1">
          <mxGeometry width="50" height="50" relative="1" as="geometry">
            <mxPoint x="980" y="120.00000000000006" as="sourcePoint" />
            <mxPoint x="930" y="120.00000000000006" as="targetPoint" />
          </mxGeometry>
        </mxCell>
        <mxCell id="gOE7nMKPhkvVEyiqWbvj-59" value="" style="verticalLabelPosition=bottom;verticalAlign=top;html=1;shape=mxgraph.basic.rect;fillColor2=none;strokeWidth=1;size=0;indent=5;" vertex="1" parent="1">
          <mxGeometry x="300" y="420" width="50" height="30" as="geometry" />
        </mxCell>
        <mxCell id="gOE7nMKPhkvVEyiqWbvj-61" value="" style="verticalLabelPosition=bottom;verticalAlign=top;html=1;shape=mxgraph.basic.rect;fillColor2=none;strokeWidth=1;size=0;indent=5;fillColor=#f8cecc;strokeColor=#b85450;" vertex="1" parent="1">
          <mxGeometry x="950" y="420" width="50" height="30" as="geometry" />
        </mxCell>
        <mxCell id="gOE7nMKPhkvVEyiqWbvj-62" value="" style="verticalLabelPosition=bottom;verticalAlign=top;html=1;shape=mxgraph.basic.rect;fillColor2=none;strokeWidth=1;size=0;indent=5;fillColor=#f8cecc;strokeColor=#b85450;" vertex="1" parent="1">
          <mxGeometry x="1261" y="160" width="29.5" height="20" as="geometry" />
        </mxCell>
        <mxCell id="gOE7nMKPhkvVEyiqWbvj-63" value="&lt;h1 style=&quot;margin-top: 0px;&quot;&gt;Текст заметки&lt;/h1&gt;" style="text;html=1;whiteSpace=wrap;overflow=hidden;rounded=0;" vertex="1" parent="1">
          <mxGeometry x="950" y="150" width="180" height="120" as="geometry" />
        </mxCell>
        <mxCell id="gOE7nMKPhkvVEyiqWbvj-66" value="" style="edgeStyle=orthogonalEdgeStyle;rounded=0;orthogonalLoop=1;jettySize=auto;html=1;entryX=0.004;entryY=0.786;entryDx=0;entryDy=0;entryPerimeter=0;" edge="1" parent="1" source="gOE7nMKPhkvVEyiqWbvj-65" target="gOE7nMKPhkvVEyiqWbvj-2">
          <mxGeometry relative="1" as="geometry" />
        </mxCell>
        <mxCell id="gOE7nMKPhkvVEyiqWbvj-65" value="" style="ellipse;whiteSpace=wrap;html=1;aspect=fixed;fillColor=none;strokeColor=#b85450;strokeWidth=3;" vertex="1" parent="1">
          <mxGeometry x="142.5" y="432.5" width="45" height="45" as="geometry" />
        </mxCell>
        <mxCell id="gOE7nMKPhkvVEyiqWbvj-67" value="Настройки" style="text;html=1;align=center;verticalAlign=middle;whiteSpace=wrap;rounded=0;" vertex="1" parent="1">
          <mxGeometry x="-35" y="30" width="60" height="30" as="geometry" />
        </mxCell>
        <mxCell id="gOE7nMKPhkvVEyiqWbvj-71" value="" style="edgeStyle=orthogonalEdgeStyle;rounded=0;orthogonalLoop=1;jettySize=auto;html=1;entryX=-0.007;entryY=0.804;entryDx=0;entryDy=0;entryPerimeter=0;" edge="1" parent="1" source="gOE7nMKPhkvVEyiqWbvj-69" target="gOE7nMKPhkvVEyiqWbvj-3">
          <mxGeometry relative="1" as="geometry">
            <Array as="points">
              <mxPoint x="327" y="500" />
              <mxPoint x="580" y="500" />
              <mxPoint x="580" y="402" />
            </Array>
          </mxGeometry>
        </mxCell>
        <mxCell id="gOE7nMKPhkvVEyiqWbvj-69" value="" style="rounded=0;whiteSpace=wrap;html=1;fillColor=none;strokeColor=#CC0000;strokeWidth=2;" vertex="1" parent="1">
          <mxGeometry x="292" y="410" width="66" height="50" as="geometry" />
        </mxCell>
        <mxCell id="gOE7nMKPhkvVEyiqWbvj-76" value="" style="verticalLabelPosition=bottom;verticalAlign=top;html=1;shape=mxgraph.basic.rect;fillColor2=none;strokeWidth=1;size=0;indent=5;fillColor=#e1d5e7;strokeColor=#9673a6;" vertex="1" parent="1">
          <mxGeometry x="630" y="420" width="50" height="30" as="geometry" />
        </mxCell>
        <mxCell id="gOE7nMKPhkvVEyiqWbvj-77" value="" style="verticalLabelPosition=bottom;verticalAlign=top;html=1;shape=mxgraph.basic.rect;fillColor2=none;strokeWidth=1;size=0;indent=5;fillColor=#f8cecc;strokeColor=#b85450;" vertex="1" parent="1">
          <mxGeometry x="630" y="390" width="50" height="30" as="geometry" />
        </mxCell>
        <mxCell id="gOE7nMKPhkvVEyiqWbvj-78" value="" style="verticalLabelPosition=bottom;verticalAlign=top;html=1;shape=mxgraph.basic.rect;fillColor2=none;strokeWidth=1;size=0;indent=5;fillColor=#fff2cc;strokeColor=#d6b656;" vertex="1" parent="1">
          <mxGeometry x="630" y="360" width="50" height="30" as="geometry" />
        </mxCell>
        <mxCell id="gOE7nMKPhkvVEyiqWbvj-81" value="" style="edgeStyle=orthogonalEdgeStyle;rounded=0;orthogonalLoop=1;jettySize=auto;html=1;entryX=-0.01;entryY=0.804;entryDx=0;entryDy=0;entryPerimeter=0;" edge="1" parent="1" source="gOE7nMKPhkvVEyiqWbvj-79" target="gOE7nMKPhkvVEyiqWbvj-4">
          <mxGeometry relative="1" as="geometry">
            <mxPoint x="770" y="405" as="targetPoint" />
            <Array as="points">
              <mxPoint x="655" y="500" />
              <mxPoint x="870" y="500" />
              <mxPoint x="870" y="402" />
            </Array>
          </mxGeometry>
        </mxCell>
        <mxCell id="gOE7nMKPhkvVEyiqWbvj-79" value="" style="rounded=0;whiteSpace=wrap;html=1;fillColor=none;strokeColor=#CC0000;strokeWidth=2;" vertex="1" parent="1">
          <mxGeometry x="620" y="380" width="70" height="50" as="geometry" />
        </mxCell>
        <mxCell id="gOE7nMKPhkvVEyiqWbvj-86" value="" style="edgeStyle=orthogonalEdgeStyle;rounded=0;orthogonalLoop=1;jettySize=auto;html=1;entryX=-0.003;entryY=0.212;entryDx=0;entryDy=0;entryPerimeter=0;" edge="1" parent="1" source="gOE7nMKPhkvVEyiqWbvj-83" target="gOE7nMKPhkvVEyiqWbvj-5">
          <mxGeometry relative="1" as="geometry">
            <mxPoint x="960" as="targetPoint" />
            <Array as="points">
              <mxPoint x="960" y="40" />
              <mxPoint x="1200" y="40" />
              <mxPoint x="1200" y="165" />
            </Array>
          </mxGeometry>
        </mxCell>
        <mxCell id="gOE7nMKPhkvVEyiqWbvj-83" value="" style="rounded=0;whiteSpace=wrap;html=1;fillColor=none;strokeColor=#CC0000;strokeWidth=2;" vertex="1" parent="1">
          <mxGeometry x="930" y="100" width="60" height="40" as="geometry" />
        </mxCell>
      </root>
    </mxGraphModel>
  </diagram>
</mxfile>
